<svg xmlns="http://www.w3.org/2000/svg" version="1.1" xmlns:xlink="http://www.w3.org/1999/xlink" xmlns:svgjs="http://svgjs.dev/svgjs" style="overflow: hidden; height: 85vh;" viewBox="0 0 1920 1080" class="overflow-hidden rounded-md drop-shadow-lg transition duration-300"><rect width="1920" height="1080" fill="#55b09d"/><g clip-path="url(&quot;#SvgjsClipPath2348&quot;)"><g transform="matrix(-0.7237184497073126,-0.8937178556755168,0.8937178556755168,-0.7237184497073126,1126.1033834334812,1764.8964813897394)"><path d="M0,-1080C-7.892328990856366,-993.5449076827081,-40.76312704779884,-730.7827085321861,-47.35397394513819,-561.2694460962482C-53.94482084247755,-391.7561836603103,-59.55233696933181,-237.84781961649693,-39.545081384036116,-62.92042538437247C-19.53782579874042,112.006968847752,72.5795278815425,288.03116521504387,72.68955956663598,488.2949192964986C72.79959125172945,688.5586733779534,-27.692597419836574,957.0747606816475,-38.884891273475276,1138.6620991043558C-50.07718512711398,1320.249437527064,-0.9450187674421002,1407.595966350141,5.535796444803779,1577.8189498327483C12.016611657049658,1748.0419333153557,0.9226327408006298,2062.9698249721246,0,2160L 1920 2160 L 1920 -1080 Z" fill="url(&quot;#SvgjsLinearGradient2341&quot;)"/><path d="M274.2857142857143,-1080C265.9874855009798,-994.2470503694751,218.0753924651008,-720.2846811302528,224.49634157730753,-565.4823022168507C230.91729068951426,-410.6799233034486,313.797886448937,-297.960249870638,312.81140895895464,-151.18572651958755C311.8249314689723,-4.411203168537128,219.23334740536106,163.775002354109,218.57747663741327,315.1648378894518C217.92160586946548,466.5546734247946,291.60103473536645,602.6678311159478,308.87618435126785,757.1532866924692C326.15133396716925,911.6387422689907,317.53749530113464,1088.995310384127,322.2283743328217,1242.0775713485802C326.9192533645088,1395.1598323130336,345.01190188257493,1522.6597810372864,337.02145854139036,1675.6468524791896C329.0310152002058,1828.633923921093,284.7416716616603,2079.274475413198,274.2857142857143,2160L 1920 2160 L 1920 -1080 Z" fill="url(&quot;#SvgjsLinearGradient2342&quot;)"/><path d="M548.5714285714286,-1080C535.939098961125,-995.8460049245599,460.9828446197685,-730.7505273660247,472.7774509096066,-575.0760295473597C484.5720571994447,-419.4015317286946,604.3265370695088,-299.03034301981825,619.3390663104572,-145.9530130880095C634.3515955514055,7.124316843799278,583.0613123605124,181.53012396739157,562.8526263552965,343.387950043493C542.6439403500806,505.24577611959444,500.0185559891724,682.857658771796,498.08695027916195,825.1939433685991C496.1553445691515,967.5302279654022,547.8706759156262,1045.5911337618381,551.2629920952338,1197.405657624312C554.6553082748414,1349.2201814867858,518.8894412774423,1575.6486961474948,518.440847356808,1736.0810865434428C517.9922534361738,1896.5134769393908,543.5496650356584,2089.3468477572405,548.5714285714286,2160L 1920 2160 L 1920 -1080 Z" fill="url(&quot;#SvgjsLinearGradient2343&quot;)"/><path d="M822.8571428571428,-1080C824.985810344598,-983.0346137392291,835.3175732711212,-726.1407128563734,835.629147781874,-498.2076824353745C835.9407222926269,-270.27465201437565,839.4982252443768,72.57643394358442,824.7265899216598,287.5981825259935C809.9549545989427,502.6199311084025,759.5426862730176,594.2429394786676,746.9993358455714,791.9228090590799C734.4559854181252,989.6026786394922,736.8235195217208,1245.6645348516474,749.4664873569826,1473.6774000084674C762.1094551922445,1701.6902651652874,810.6253669404495,2045.6129000014112,822.8571428571428,2160L 1920 2160 L 1920 -1080 Z" fill="url(&quot;#SvgjsLinearGradient2344&quot;)"/><path d="M1097.142857142857,-1080C1107.3085362754239,-1007.442395262256,1152.2412313361165,-784.9188190760242,1158.1369319382572,-644.654371573536C1164.032632540398,-504.38992407104774,1137.342407830347,-368.5764553686603,1132.517060755701,-238.41331498507054C1127.6917136810553,-108.25017460148078,1147.1499906633621,9.329872833906734,1129.1848494903822,136.32447072800255C1111.2197083174024,263.31906862209837,1040.7723050316722,387.46274832728034,1024.726213717822,523.5542723795044C1008.6801224039718,659.6457964317284,1012.8193827977448,804.4223971872213,1032.908301607281,952.873615041347C1052.997220416817,1101.3248328954726,1141.5968984467258,1269.4286260299284,1145.2597265750392,1414.261579504258C1148.9225547033525,1559.0945329785875,1062.9047486158586,1697.5815991380334,1054.8852703771615,1821.8713358873238C1046.8657921384645,1946.161072636614,1090.0999260152412,2103.6452226478873,1097.142857142857,2160L 1920 2160 L 1920 -1080 Z" fill="url(&quot;#SvgjsLinearGradient2345&quot;)"/><path d="M1371.4285714285716,-1080C1364.6174204601898,-973.444679635233,1340.6384594956185,-655.0753046804269,1330.5616656182806,-440.6680778113983C1320.4848717409427,-226.26085094236967,1298.2238568475823,0.5478890139670227,1310.9678081645438,206.44336121417174C1323.7117594815054,412.3388334143765,1388.628663570952,577.8764779418657,1407.0253735200492,794.7047553898301C1425.4220834691464,1011.5330328377945,1427.2808682077064,1279.8638184669296,1421.3480678591268,1507.413025901958C1415.4152675105472,1734.9622333369864,1379.7484875003308,2051.235504316993,1371.4285714285716,2160L 1920 2160 L 1920 -1080 Z" fill="url(&quot;#SvgjsLinearGradient2346&quot;)"/><path d="M1645.7142857142856,-1080C1641.771013868544,-985.4726550897763,1610.2484976850442,-683.3379737134663,1622.0546546398364,-512.8359305386576C1633.8608115946286,-342.33388736384893,1717.269567929469,-227.4223894884371,1716.551227443039,-56.987740951147856C1715.8328869566087,113.44690758614138,1638.225738887396,312.9157258916772,1617.7446117212553,509.77196068507783C1597.2634845551147,706.6281954784785,1587.8646533439633,950.0268338323351,1593.6644644461956,1124.1496678092562C1599.4642755484278,1298.2725017861774,1643.8685081233004,1381.8672425148143,1652.5434783346489,1554.5089645466048C1661.2184485459973,1727.1506865783954,1646.8524844843462,2059.084827424434,1645.7142857142856,2160L 1920 2160 L 1920 -1080 Z" fill="url(&quot;#SvgjsLinearGradient2347&quot;)"/></g></g><defs><linearGradient x1="0.1" y1="0" x2="0" y2="1" id="SvgjsLinearGradient2341"><stop stop-color="#55b09d" offset="0"/><stop stop-color="#55b08e" offset="0"/></linearGradient><linearGradient x1="0.1" y1="0" x2="0" y2="1" id="SvgjsLinearGradient2342"><stop stop-color="#6abaa9" offset="0"/><stop stop-color="#6aba9c" offset="0.14285714285714285"/></linearGradient><linearGradient x1="0.1" y1="0" x2="0" y2="1" id="SvgjsLinearGradient2343"><stop stop-color="#7fc4b5" offset="0"/><stop stop-color="#7fc4a9" offset="0.2857142857142857"/></linearGradient><linearGradient x1="0.1" y1="0" x2="0" y2="1" id="SvgjsLinearGradient2344"><stop stop-color="#94cdc2" offset="0"/><stop stop-color="#94cdb8" offset="0.42857142857142855"/></linearGradient><linearGradient x1="0.1" y1="0" x2="0" y2="1" id="SvgjsLinearGradient2345"><stop stop-color="#aad7ce" offset="0"/><stop stop-color="#aad7c6" offset="0.5714285714285714"/></linearGradient><linearGradient x1="0.1" y1="0" x2="0" y2="1" id="SvgjsLinearGradient2346"><stop stop-color="#bfe1da" offset="0"/><stop stop-color="#bfe1d4" offset="0.7142857142857143"/></linearGradient><linearGradient x1="0.1" y1="0" x2="0" y2="1" id="SvgjsLinearGradient2347"><stop stop-color="#d4ebe6" offset="0"/><stop stop-color="#d4ebe2" offset="0.8571428571428571"/></linearGradient><clipPath id="SvgjsClipPath2348"><rect width="1920" height="1080"/></clipPath></defs></svg>